<svg xmlns="http://www.w3.org/2000/svg" width="33" height="45.092" viewBox="0 0 33 45.092">
  <g id="Group_1190" data-name="Group 1190" transform="translate(-3883 -4725.448)">
    <g id="Group_1189" data-name="Group 1189" transform="translate(3883 4725.448)">
      <path id="Path_1463" data-name="Path 1463" d="M-171.723,510.488c0,.511-.008,1.069,0,1.628a2.336,2.336,0,0,0,2.254,2.487q5.705.1,11.411.006a2.387,2.387,0,0,0,2.3-2.473c.024-.561,0-1.122,0-1.775,1.713,0,3.343-.08,4.957.028,1.12.074,1.7.985,1.7,2.33q.009,8.374,0,16.748v5.966a20.732,20.732,0,0,0-3.633.038,6.308,6.308,0,0,0-4.752,3.733,1.162,1.162,0,0,1-1.291.768c-2.169-.04-4.338-.02-6.507-.014-.575,0-1.269-.014-1.275.77s.649.79,1.252.788c2.338-.008,4.678,0,6.908,0l1.033,4.254c-.239.014-.575.05-.911.052q-8.854,0-17.707,0c-1.689,0-2.426-.71-2.426-2.38q-.012-15.31,0-30.615c0-1.783.74-2.491,2.543-2.493,1.281,0,2.561.012,3.84.024C-171.954,510.357-171.893,510.41-171.723,510.488Zm11.8,10.5q2.825,0,5.651,0c.577,0,1.14-.088,1.144-.8s-.547-.816-1.128-.816q-5.546,0-11.091,0c-.607,0-1.283.1-1.166.846.048.307.74.711,1.152.73C-163.553,521.036-161.737,520.992-159.924,520.992Zm.131,5.235q-2.717,0-5.434,0c-.627,0-1.337.008-1.317.844.018.75.683.77,1.279.77q5.434-.006,10.868,0c.6,0,1.244,0,1.26-.782s-.625-.832-1.222-.832Q-157.076,526.224-159.793,526.227Zm-.048,8.447c1.845,0,3.691-.006,5.536,0,.567,0,1.152-.034,1.176-.752s-.543-.818-1.118-.818q-5.591,0-11.18,0c-.563,0-1.16.084-1.124.806.032.671.583.772,1.174.766C-163.53,534.662-161.685,534.674-159.841,534.674Zm-12.579-14.33c-.269-.38-.388-.728-.611-.82a3.791,3.791,0,0,0-1.1-.113,2.807,2.807,0,0,0,.1,1.063,7.433,7.433,0,0,0,.919,1.027c.6.712,1.1.774,1.677-.056.812-1.164,1.689-2.286,2.565-3.4.336-.428.631-.828.1-1.275-.565-.468-.921-.016-1.226.376C-170.764,518.123-171.5,519.123-172.42,520.345Zm.119,6.683c-.32-.3-.541-.631-.846-.746a1.116,1.116,0,0,0-.971.054,1.013,1.013,0,0,0,.028.957,11.1,11.1,0,0,0,1.152,1.238c.509.561.935.509,1.377-.088.907-1.22,1.872-2.4,2.73-3.649a1.227,1.227,0,0,0,.018-1.15c-.48-.545-.872-.054-1.18.344C-170.749,524.965-171.489,525.954-172.3,527.027Zm-.008,13.706c-.308-.291-.525-.629-.826-.742a1.159,1.159,0,0,0-.991.058,1.013,1.013,0,0,0,.022.955,10.893,10.893,0,0,0,1.17,1.234c.515.555.947.486,1.389-.106.887-1.2,1.8-2.374,2.7-3.56.318-.416.619-.844.022-1.263s-.893.022-1.206.436C-170.77,538.729-171.521,539.7-172.31,540.734Zm.014-6.841a4.049,4.049,0,0,0-.921-.816,1.015,1.015,0,0,0-.911.1.891.891,0,0,0-.056.872,5.97,5.97,0,0,0,1.4,1.431,1.155,1.155,0,0,0,1.12-.119c1.019-1.214,1.98-2.487,2.877-3.8.171-.249-.04-.762-.074-1.154-.354.113-.84.115-1.043.354C-170.721,531.735-171.453,532.777-172.3,533.892Z" transform="translate(178.403 -503)" fill="#fff"/>
      <path id="Path_1464" data-name="Path 1464" d="M-170.95,510.233c.472-2.523,1.48-3.552,3.373-3.548s2.845.977,3.367,3.55c.6,0,1.224-.018,1.852,0,1.24.042,1.767.547,1.789,1.753.024,1.244.026,2.489,0,3.733-.022,1.041-.523,1.636-1.556,1.646q-5.494.057-10.989,0a1.406,1.406,0,0,1-1.472-1.508c-.04-1.351-.044-2.7,0-4.053a1.539,1.539,0,0,1,1.669-1.568C-172.287,510.205-171.65,510.233-170.95,510.233Zm4.767-.332a1.361,1.361,0,0,0-1.417-1.381,1.321,1.321,0,0,0-1.363,1.329A1.4,1.4,0,0,0-167.6,511.3,1.387,1.387,0,0,0-166.184,509.9Z" transform="translate(182.226 -506.685)" fill="#fff"/>
      <path id="Path_1465" data-name="Path 1465" d="M-155.976,529.081a5.964,5.964,0,0,1-5.981,6.041,6.014,6.014,0,0,1-5.981-5.955,5.9,5.9,0,0,1,5.892-6A5.882,5.882,0,0,1-155.976,529.081Zm-7.215,1.154c-.3-.42-.442-.855-.718-.961a3.259,3.259,0,0,0-1.208.006c.05.368-.014.814.173,1.088a14.367,14.367,0,0,0,1.238,1.317c.545.619,1,.525,1.461-.093.979-1.307,1.976-2.6,2.963-3.9.328-.432.718-.889.08-1.357-.585-.43-.971-.078-1.323.392C-161.332,527.807-162.154,528.872-163.191,530.236Z" transform="translate(188.976 -490.031)" fill="#fff"/>
    </g>
  </g>
</svg>
