<svg id="Group_10" data-name="Group 10" xmlns="http://www.w3.org/2000/svg" width="35.559" height="24.657" viewBox="0 0 35.559 24.657">
  <path id="Path_1420" data-name="Path 1420" d="M-367.471,1h30.194c.243,5.427-1.563,9.965-5.879,13.328a14.991,14.991,0,0,1-16.693,1.189A15.221,15.221,0,0,1-367.471,1Zm15.1,3.185a4.223,4.223,0,0,0-4.222,4.18,4.211,4.211,0,0,0,4.158,4.238,4.208,4.208,0,0,0,4.266-4.191A4.214,4.214,0,0,0-352.375,4.183Z" transform="translate(370.163 7.151)" fill="#fff"/>
  <path id="Path_1421" data-name="Path 1421" d="M-338.943-20.484c0,.611,0,1.213,0,1.814,0,1-.005,2,0,3a1.789,1.789,0,0,1-1.95,1.967q-8.1,0-16.2,0-7.756,0-15.512,0a1.767,1.767,0,0,1-1.9-1.9q0-2.3,0-4.6c0-.092.009-.184.014-.294h26.172v.357c0,1.105,0,2.21.005,3.315a1.3,1.3,0,0,0,.061.427.491.491,0,0,0,.541.381.942.942,0,0,0,.524-.364,1.08,1.08,0,0,0,.1-.572c.006-1.063,0-2.126,0-3.189,0-.112,0-.225,0-.355h1.526c.006.118.016.228.016.337q0,1.58-.005,3.159a3.04,3.04,0,0,0,.01.344.643.643,0,0,0,.661.648.655.655,0,0,0,.568-.707c.005-1.084,0-2.168.005-3.252,0-.166,0-.331,0-.522Z" transform="translate(374.502 20.49)" fill="#fff"/>
  <path id="Path_1422" data-name="Path 1422" d="M-332.184,18.718a2.754,2.754,0,0,1-2.769-2.782,2.771,2.771,0,0,1,2.762-2.794,2.778,2.778,0,0,1,2.808,2.789A2.765,2.765,0,0,1-332.184,18.718Zm-.646-2.628a.914.914,0,0,0,.915-.91.926.926,0,0,0-.9-.9.911.911,0,0,0-.912.915A.91.91,0,0,0-332.83,16.09Z" transform="translate(349.952 -0.387)" fill="#fff"/>
</svg>
