<svg id="pointer-spot-tool-for-maps" xmlns="http://www.w3.org/2000/svg" width="30.117" height="33.074" viewBox="0 0 30.117 33.074">
  <g id="Group_12" data-name="Group 12" transform="translate(0)">
    <path id="Path_1424" data-name="Path 1424" d="M23.633,18.488h-3q-.437.712-.848,1.364h3.2l5.461,6.817H4l5.462-6.817h3.2c-.272-.435-.556-.89-.848-1.364h-3L1.162,28.035H31.279Z" transform="translate(-1.162 5.039)" fill="#fff"/>
    <path id="Path_1425" data-name="Path 1425" d="M24.451,9.434a9.435,9.435,0,0,0-18.87,0c0,5.21,9.435,18.868,9.435,18.868S24.451,14.643,24.451,9.434Zm-14.152,0a4.717,4.717,0,1,1,4.717,4.717A4.717,4.717,0,0,1,10.3,9.434Z" transform="translate(0.042)" fill="#fff"/>
  </g>
</svg>