<svg xmlns="http://www.w3.org/2000/svg" width="36.658" height="29.993" viewBox="0 0 36.658 29.993">
  <g id="speaker" transform="translate(0 -42.664)">
    <g id="Group_1111" data-name="Group 1111" transform="translate(0 42.664)">
      <g id="Group_1110" data-name="Group 1110" transform="translate(0 0)">
        <path id="Path_1452" data-name="Path 1452" d="M16.159,42.733a.83.83,0,0,0-.9.159L6.677,51H.833A.833.833,0,0,0,0,51.829V63.493a.833.833,0,0,0,.833.833H6.677l8.58,8.1a.83.83,0,0,0,.572.228.819.819,0,0,0,.33-.068.831.831,0,0,0,.5-.765V43.5A.832.832,0,0,0,16.159,42.733Z" transform="translate(0 -42.664)" fill="#fff"/>
        <path id="Path_1453" data-name="Path 1453" d="M245.44,172.025l-1.187,1.187a.8.8,0,0,0-.118,1.029,4.158,4.158,0,0,1,0,4.908.8.8,0,0,0,.118,1.029l1.187,1.187a.847.847,0,0,0,1.272-.1,7.485,7.485,0,0,0,0-9.14A.847.847,0,0,0,245.44,172.025Z" transform="translate(-224.94 -161.698)" fill="#fff"/>
        <path id="Path_1454" data-name="Path 1454" d="M307.473,111.422a.833.833,0,0,0-1.205-.018l-1.179,1.179a.839.839,0,0,0-.021,1.15,10.811,10.811,0,0,1,0,14.14.839.839,0,0,0,.021,1.15l1.179,1.179a.833.833,0,0,0,1.205-.018,14.138,14.138,0,0,0,0-18.76Z" transform="translate(-281.04 -105.805)" fill="#fff"/>
        <path id="Path_1455" data-name="Path 1455" d="M367.812,51.061a.839.839,0,0,0-1.2-.012l-1.18,1.18a.825.825,0,0,0-.013,1.147,17.465,17.465,0,0,1,0,23.571.825.825,0,0,0,.013,1.147l1.18,1.18a.839.839,0,0,0,1.2-.012,20.792,20.792,0,0,0,0-28.2Z" transform="translate(-336.666 -50.165)" fill="#fff"/>
      </g>
    </g>
  </g>
</svg>