<svg xmlns="http://www.w3.org/2000/svg" width="26.295" height="45.273" viewBox="0 0 26.295 45.273">
  <g id="Group_1436" data-name="Group 1436" transform="translate(-44 -454.667)">
    <g id="Group_1435" data-name="Group 1435" transform="translate(-835.524 69.161)">
      <rect id="Rectangle_1614" data-name="Rectangle 1614" width="1.26" height="1.18" transform="translate(892.042 426.504)" fill="#fff"/>
      <path id="Path_1508" data-name="Path 1508" d="M902.863,385.506H882.48a2.965,2.965,0,0,0-2.956,2.957v7.025h0v32.335a2.965,2.965,0,0,0,2.956,2.956h20.382a2.965,2.965,0,0,0,2.957-2.956v-39.36A2.965,2.965,0,0,0,902.863,385.506Zm-13.354,2.68h6.765a.693.693,0,0,1,0,1.386h-6.765a.693.693,0,0,1,0-1.386Zm-5.766-.195a.887.887,0,1,1-.887.887A.89.89,0,0,1,883.743,387.991Zm10.944,40.386a.693.693,0,0,1-.693.693h-2.646a.693.693,0,0,1-.693-.693v-2.566a.693.693,0,0,1,.693-.693h2.646a.693.693,0,0,1,.693.693Zm8.037-5.434H882.619v-29.9h20.105Z" transform="translate(0)" fill="#fff"/>
    </g>
  </g>
</svg>