<svg id="Group_11" data-name="Group 11" xmlns="http://www.w3.org/2000/svg" width="23.719" height="42.951" viewBox="0 0 23.719 42.951">
  <rect id="Rectangle_617" data-name="Rectangle 617" width="8.82" height="11.175" rx="4.41" transform="translate(7.449 31.776)" fill="#fff"/>
  <path id="Path_1423" data-name="Path 1423" d="M-849.79-117.843h-17.183a3.268,3.268,0,0,0-3.268,3.268V-82.33a3.2,3.2,0,0,0,3.2,3.2h2.724v-4.5a4.069,4.069,0,0,1,4.07-4.07h3.882a4.069,4.069,0,0,1,4.07,4.07v4.5h2.568a3.2,3.2,0,0,0,3.2-3.2v-32.245A3.268,3.268,0,0,0-849.79-117.843Zm-14.843,28.127a1.521,1.521,0,0,1-1.521-1.521,1.521,1.521,0,0,1,1.521-1.521,1.521,1.521,0,0,1,1.521,1.521A1.521,1.521,0,0,1-864.633-89.716Zm0-4.045a1.521,1.521,0,0,1-1.521-1.521,1.521,1.521,0,0,1,1.521-1.521,1.521,1.521,0,0,1,1.521,1.521A1.521,1.521,0,0,1-864.633-93.761Zm0-4.045a1.521,1.521,0,0,1-1.521-1.521,1.521,1.521,0,0,1,1.521-1.521,1.521,1.521,0,0,1,1.521,1.521A1.521,1.521,0,0,1-864.633-97.806Zm4.168,8.09a1.522,1.522,0,0,1-1.521-1.521,1.522,1.522,0,0,1,1.521-1.521,1.522,1.522,0,0,1,1.521,1.521A1.522,1.522,0,0,1-860.466-89.716Zm0-4.045a1.522,1.522,0,0,1-1.521-1.521,1.522,1.522,0,0,1,1.521-1.521,1.522,1.522,0,0,1,1.521,1.521A1.522,1.522,0,0,1-860.466-93.761Zm0-4.045a1.521,1.521,0,0,1-1.521-1.521,1.521,1.521,0,0,1,1.521-1.521,1.521,1.521,0,0,1,1.521,1.521A1.521,1.521,0,0,1-860.466-97.806Zm4.168,8.09a1.522,1.522,0,0,1-1.521-1.521,1.522,1.522,0,0,1,1.521-1.521,1.522,1.522,0,0,1,1.521,1.521A1.522,1.522,0,0,1-856.3-89.716Zm0-4.045a1.522,1.522,0,0,1-1.521-1.521A1.522,1.522,0,0,1-856.3-96.8a1.522,1.522,0,0,1,1.521,1.521A1.522,1.522,0,0,1-856.3-93.761Zm0-4.045a1.521,1.521,0,0,1-1.521-1.521,1.521,1.521,0,0,1,1.521-1.521,1.521,1.521,0,0,1,1.521,1.521A1.521,1.521,0,0,1-856.3-97.806Zm4.168,8.09a1.522,1.522,0,0,1-1.521-1.521,1.522,1.522,0,0,1,1.521-1.521,1.521,1.521,0,0,1,1.521,1.521A1.521,1.521,0,0,1-852.13-89.716Zm0-4.045a1.522,1.522,0,0,1-1.521-1.521A1.522,1.522,0,0,1-852.13-96.8a1.521,1.521,0,0,1,1.521,1.521A1.521,1.521,0,0,1-852.13-93.761Zm0-4.045a1.521,1.521,0,0,1-1.521-1.521,1.521,1.521,0,0,1,1.521-1.521,1.521,1.521,0,0,1,1.521,1.521A1.521,1.521,0,0,1-852.13-97.806Zm2.9-7.011A1.773,1.773,0,0,1-851-103.05H-865.65a1.773,1.773,0,0,1-1.768-1.768v-7.867a1.773,1.773,0,0,1,1.768-1.768H-851a1.773,1.773,0,0,1,1.768,1.768Z" transform="translate(870.241 117.843)" fill="#fff"/>
</svg>
