<svg id="Group_18" data-name="Group 18" xmlns="http://www.w3.org/2000/svg" width="40.685" height="20.495" viewBox="0 0 40.685 20.495">
  <path id="Path_1429" data-name="Path 1429" d="M-1190.722-793.852l7.149-5.866s.843-.917,3.006-.623l17.341-.058s2.383-.125,3.19.975l6.6,5.573Z" transform="translate(1192.422 800.404)" fill="#fff"/>
  <g id="Group_17" data-name="Group 17" transform="translate(0 8.206)">
    <path id="Path_1430" data-name="Path 1430" d="M-1177.548-777.788h19.5l-2.077,2.853a4.679,4.679,0,0,1-3.537,1.853h-8.23s-2.5.122-3.482-1.384Z" transform="translate(1184.028 777.788)" fill="#fff"/>
    <path id="Path_1431" data-name="Path 1431" d="M-1158.14-777.788h-9.492l-2.926,3.934s-1.32,2.423-5.031,2.21h-7.208s-3.869.374-5.274-2.21l-2.505-3.925h-1.749a2.723,2.723,0,0,0-3.069,2.926v6.637s-.428,2.676,3.747,2.676h32.9s4,.607,4-2.855v-5.888S-1154.18-777.788-1158.14-777.788Zm-33.457,10.115a1.585,1.585,0,0,1-1.584-1.585,1.585,1.585,0,0,1,1.584-1.585,1.584,1.584,0,0,1,1.585,1.585A1.584,1.584,0,0,1-1191.6-767.673Zm0-5.29a1.585,1.585,0,0,1-1.584-1.584,1.585,1.585,0,0,1,1.584-1.585,1.584,1.584,0,0,1,1.585,1.585A1.585,1.585,0,0,1-1191.6-772.963Zm24.91-3.169a1.584,1.584,0,0,1,1.585,1.585,1.585,1.585,0,0,1-1.585,1.584,1.585,1.585,0,0,1-1.585-1.584A1.585,1.585,0,0,1-1166.687-776.132Zm.118,8.929a1.584,1.584,0,0,1-1.585-1.585,1.584,1.584,0,0,1,1.585-1.585,1.584,1.584,0,0,1,1.584,1.585A1.584,1.584,0,0,1-1166.569-767.2Zm2.848-3.024a1.585,1.585,0,0,1-1.585-1.585,1.585,1.585,0,0,1,1.585-1.585,1.584,1.584,0,0,1,1.585,1.585A1.584,1.584,0,0,1-1163.721-770.228Zm3.169,3.024a1.585,1.585,0,0,1-1.584-1.585,1.585,1.585,0,0,1,1.584-1.585,1.584,1.584,0,0,1,1.585,1.585A1.584,1.584,0,0,1-1160.552-767.2Zm0-5.76a1.585,1.585,0,0,1-1.584-1.584,1.585,1.585,0,0,1,1.584-1.585,1.584,1.584,0,0,1,1.585,1.585A1.585,1.585,0,0,1-1160.552-772.963Z" transform="translate(1195.406 777.788)" fill="#fff"/>
  </g>
</svg>
